<svg xmlns="http://www.w3.org/2000/svg" xmlns:xlink="http://www.w3.org/1999/xlink" aria-hidden="true" role="img" class="iconify iconify--logos" width="35.93" height="32" preserveAspectRatio="xMidYMid meet" viewBox="0 0 256 228"><path fill="#00D8FF" d="M210.483 73.824a171.49 171.49 0 0 0-8.24-2.597c.465-1.9.893-3.777 1.273-5.621c9.253-45.424-17.894-82.184-47.186-82.184c-12.347 0-25.038 4.048-37.846 12.402a171.499 171.499 0 0 0-8.24 2.597c-12.808-8.354-25.5-12.402-37.847-12.402c-29.292 0-56.44 36.76-47.186 82.184c.38 1.844.808 3.721 1.273 5.621c-2.825.84-5.525 1.871-8.24 2.597C8.786 89.753.653 119.704.653 146.759c0 46.257 37.55 83.806 83.806 83.806c17.89 0 35.725-5.613 51.521-16.252a171.49 171.49 0 0 0 8.24-2.597c15.796 10.639 33.631 16.252 51.521 16.252c46.257 0 83.806-37.55 83.806-83.806c0-27.055-8.133-57.006-22.273-72.935ZM128.136 156.499c-18.281 0-33.077-14.796-33.077-33.077s14.796-33.077 33.077-33.077s33.077 14.796 33.077 33.077s-14.796 33.077-33.077 33.077Zm-45.939-33.077c0-25.194 20.745-45.939 45.939-45.939s45.939 20.745 45.939 45.939s-20.745 45.939-45.939 45.939s-45.939-20.745-45.939-45.939Z"></path></svg>